<?xml version="1.0" standalone="no"?>
<!DOCTYPE svg PUBLIC "-//W3C//DTD SVG 20010904//EN"
 "http://www.w3.org/TR/2001/REC-SVG-20010904/DTD/svg10.dtd">
<svg version="1.0" xmlns="http://www.w3.org/2000/svg"
 width="1143.000000pt" height="1167.000000pt" viewBox="0 0 1143.000000 1167.000000"
 preserveAspectRatio="xMidYMid meet">

<g transform="translate(0.000000,1167.000000) scale(0.100000,-0.100000)"
fill="#000000" stroke="none">
<path d="M8720 8690 c-894 -4 -2241 -10 -2995 -14 -753 -3 -2150 -9 -3102 -12
-953 -4 -1733 -8 -1733 -9 0 -2 196 -345 435 -764 l435 -761 0 -67 c0 -38 5
-75 10 -83 6 -10 10 174 10 528 l0 542 165 0 165 0 0 -839 c0 -519 4 -842 9
-846 6 -3 11 18 13 51 l3 56 429 -751 429 -751 -2 -58 c-1 -32 5 -73 12 -92
14 -31 15 -26 22 99 l7 131 129 0 129 0 0 -372 c0 -332 5 -416 24 -397 3 2 6
26 7 52 2 26 4 47 5 47 1 0 44 -73 96 -162 88 -154 93 -167 100 -238 21 -224
25 -159 27 443 l1 627 318 0 c346 0 407 -7 503 -55 161 -81 246 -218 256 -415
11 -201 -65 -368 -211 -462 -98 -63 -134 -71 -376 -77 l-215 -6 -3 -267 -2
-268 -134 0 c-120 0 -135 2 -139 18 -3 10 -5 7 -6 -10 -2 -43 29 -55 143 -56
54 -1 104 -6 110 -12 9 -6 20 -4 35 6 12 9 24 14 26 13 1 -2 425 -743 940
-1647 516 -903 940 -1642 944 -1642 3 0 479 845 1056 1876 578 1032 1055 1882
1060 1890 7 10 10 -3 9 -48 -1 -62 -1 -62 17 -39 18 21 19 45 18 310 0 199 -3
281 -10 271 -6 -8 -95 -220 -198 -470 l-187 -455 -110 -3 -109 -3 -189 458
c-103 252 -192 462 -197 468 -5 5 -9 -178 -9 -458 l0 -467 -130 0 -130 0 0
775 0 775 148 0 147 -1 231 -567 c127 -312 234 -567 238 -567 7 0 169 391 386
928 l84 207 143 0 143 0 0 -357 c0 -282 3 -354 12 -345 7 7 15 50 18 95 5 82
6 84 100 255 52 94 97 172 100 172 3 0 4 -25 3 -56 -3 -49 -1 -55 12 -44 12
10 15 40 15 146 l0 134 34 0 34 0 297 530 297 530 20 -25 c10 -13 24 -24 29
-22 5 1 56 -63 112 -143 l103 -145 149 0 c134 0 150 2 153 17 3 16 -11 18
-149 20 l-153 3 -111 160 c-61 88 -320 461 -576 830 l-464 670 -3 -833 -2
-832 -165 0 -165 0 0 1120 0 1120 153 0 152 0 548 -790 c302 -435 553 -793
558 -796 5 -3 12 2 15 10 10 26 26 18 24 -11 -3 -48 0 -64 10 -58 7 4 10 290
10 826 l0 819 160 0 160 0 0 -527 c1 -467 2 -525 15 -503 9 16 14 50 14 90
l-1 65 425 757 c233 417 422 760 419 763 -3 3 -42 4 -86 3 -45 -1 -812 -5
-1706 -8z m-4770 -785 l0 -145 -525 0 -525 0 0 -340 0 -340 475 0 475 0 0
-145 0 -145 -472 -2 -473 -3 -3 -487 -2 -488 -160 0 -160 0 0 1120 0 1120 685
0 685 0 0 -145z m1970 0 l0 -145 -345 0 -345 0 0 -975 0 -975 -166 0 -167 0 4
973 4 972 -342 3 -343 2 0 145 0 145 850 0 850 0 0 -145z m670 -975 l0 -1120
-165 0 -165 0 0 1120 0 1120 165 0 165 0 0 -1120z m790 0 l0 -1120 -160 0
-160 0 0 1120 0 1120 160 0 160 0 0 -1120z m-1650 281 c0 -5 72 -82 160 -171
88 -89 160 -166 160 -171 0 -5 7 -9 15 -9 9 0 20 -11 27 -25 6 -13 15 -22 19
-19 5 3 9 1 9 -3 0 -12 89 -103 100 -103 13 0 15 -73 18 -520 3 -348 6 -417
18 -430 21 -22 317 -22 338 0 12 12 16 66 20 264 3 136 7 250 10 253 5 6 20
-6 81 -64 24 -24 49 -43 55 -43 6 0 9 -4 6 -8 -3 -5 25 -39 62 -75 37 -37 73
-72 80 -79 72 -72 103 -101 98 -91 -4 8 -2 11 6 8 9 -4 13 -28 13 -82 l-1 -77
-32 -13 c-18 -7 -32 -18 -32 -23 0 -6 -34 -44 -75 -84 -41 -40 -72 -76 -68
-80 3 -3 1 -6 -5 -6 -12 0 -62 -43 -62 -54 0 -10 -59 -66 -70 -66 -6 0 -10 -3
-10 -8 0 -13 -57 -71 -64 -65 -3 4 -6 2 -6 -4 0 -6 -18 -30 -40 -53 -22 -23
-40 -47 -40 -52 0 -5 -5 -6 -10 -3 -6 3 -14 -4 -19 -17 -6 -13 -10 -19 -10
-15 -1 5 -37 -29 -82 -75 l-80 -83 31 -3 c30 -3 32 -5 26 -34 -3 -17 -6 -367
-6 -779 l0 -749 -130 0 -130 0 0 68 c-1 264 -13 1458 -16 1460 -11 13 -23 -49
-25 -128 -1 -69 -6 -97 -18 -110 -9 -10 -40 -43 -68 -73 -29 -30 -49 -58 -45
-62 4 -5 1 -5 -5 -1 -7 4 -20 -2 -30 -14 -10 -12 -49 -54 -87 -93 -38 -40 -69
-75 -68 -79 1 -3 -5 -9 -13 -11 -12 -5 -27 6 -71 54 -40 42 -89 84 -96 81 -4
-1 -8 2 -8 8 0 13 -41 60 -49 56 -3 -2 -7 13 -7 35 l-2 38 215 0 c156 0 219 4
230 12 12 10 14 36 11 137 -2 78 -8 131 -15 141 -10 13 -12 -7 -13 -101 l0
-118 -230 0 -230 0 0 -650 0 -650 -135 0 -135 0 0 650 0 650 -230 0 -230 0 0
124 0 123 83 6 c45 4 130 7 189 7 l106 0 -124 126 c-68 70 -124 130 -124 134
0 3 -11 13 -25 20 -14 7 -25 20 -25 27 0 8 -4 12 -8 9 -10 -6 -43 30 -35 38 4
3 1 6 -5 6 -6 0 -32 20 -59 45 -26 25 -51 45 -55 45 -4 0 -5 7 -2 15 4 8 2 15
-4 15 -6 0 -47 38 -93 85 -45 46 -87 81 -92 78 -6 -3 -7 -1 -3 5 3 6 1 15 -6
19 -7 5 -33 30 -58 56 l-45 48 22 18 c12 10 20 21 17 24 -3 3 4 8 16 12 15 5
19 12 15 23 -3 9 -3 13 1 10 9 -9 124 101 124 119 0 7 4 13 9 13 9 0 196 181
196 191 0 3 24 27 53 54 28 26 53 57 54 69 5 73 16 -147 17 -345 1 -184 4
-239 15 -254 13 -18 28 -19 175 -19 111 0 165 4 173 12 9 9 13 137 14 497 2
535 -3 492 70 572 59 65 58 64 126 130 35 34 78 77 95 95 18 18 39 39 48 46 8
7 13 17 10 23 -4 5 1 9 9 9 8 0 32 20 53 45 34 41 63 58 63 36z"/>
<path d="M2847 7143 c-4 -3 -7 -15 -7 -25 0 -14 -5 -17 -23 -13 -21 6 -25 1
-36 -36 -10 -34 -10 -43 1 -51 10 -7 10 -10 -4 -19 -10 -5 -18 -15 -19 -22 0
-7 -15 -32 -33 -57 -28 -39 -38 -45 -74 -48 l-42 -3 0 -515 0 -514 130 0 130
0 0 490 0 490 205 0 c130 0 205 4 205 10 0 6 7 10 15 10 8 0 15 -4 15 -10 0
-6 92 -10 255 -10 l255 0 0 115 0 115 -301 0 -301 0 -48 -50 c-27 -28 -52 -50
-57 -50 -11 0 -29 35 -37 73 l-6 27 -100 0 c-100 0 -100 0 -100 25 0 14 -4 25
-10 25 -14 0 -12 37 3 43 6 3 7 6 1 6 -6 1 -14 -2 -17 -6z m63 -119 c0 -9 -7
-14 -17 -12 -25 5 -28 28 -4 28 12 0 21 -6 21 -16z m790 -15 c0 -5 -4 -9 -10
-9 -5 0 -10 7 -10 16 0 8 5 12 10 9 6 -3 10 -10 10 -16z m-930 -269 c0 -5 -4
-10 -10 -10 -5 0 -10 5 -10 10 0 6 5 10 10 10 6 0 10 -4 10 -10z m17 -66 c-3
-3 -12 -4 -19 -1 -8 3 -5 6 6 6 11 1 17 -2 13 -5z m-137 -300 c0 -8 -4 -12
-10 -9 -5 3 -10 10 -10 16 0 5 5 9 10 9 6 0 10 -7 10 -16z m200 -14 c0 -5 -5
-10 -11 -10 -5 0 -7 5 -4 10 3 6 8 10 11 10 2 0 4 -4 4 -10z m-170 -60 c0 -5
-4 -10 -9 -10 -6 0 -13 5 -16 10 -3 6 1 10 9 10 9 0 16 -4 16 -10z m145 -70
c3 -5 -1 -10 -9 -10 -9 0 -16 5 -16 10 0 6 4 10 9 10 6 0 13 -4 16 -10z m-125
-220 c0 -11 -7 -20 -15 -20 -8 0 -15 9 -15 20 0 11 7 20 15 20 8 0 15 -9 15
-20z"/>
<path d="M4650 8008 c0 -6 8 -8 19 -5 15 4 20 -2 24 -36 3 -22 11 -43 18 -47
8 -5 10 -28 7 -69 l-4 -61 113 0 113 0 0 -53 c0 -50 2 -53 40 -77 22 -14 40
-30 40 -37 0 -7 6 -16 13 -20 8 -4 19 -17 24 -28 6 -10 26 -24 45 -31 25 -8
32 -17 31 -32 -2 -15 2 -20 11 -16 8 3 17 1 21 -5 3 -6 13 -11 20 -11 12 0 15
30 17 162 3 154 4 163 23 166 17 3 17 1 5 -7 -11 -8 83 -10 315 -8 l330 2 3
113 3 112 -616 0 c-431 -1 -615 -4 -615 -12z m1030 -27 c0 -6 -4 -13 -10 -16
-5 -3 -10 1 -10 9 0 9 5 16 10 16 6 0 10 -4 10 -9z m-790 -76 c0 -8 -7 -15
-15 -15 -8 0 -15 7 -15 15 0 8 7 15 15 15 8 0 15 -7 15 -15z m-60 -3 c0 -14
-11 -21 -26 -15 -21 8 -17 23 6 23 11 0 20 -4 20 -8z m747 -14 c-3 -8 -6 -5
-6 6 -1 11 2 17 5 13 3 -3 4 -12 1 -19z m-321 -35 c-10 -10 -19 5 -10 18 6 11
8 11 12 0 2 -7 1 -15 -2 -18z m-136 -3 c0 -5 -4 -10 -10 -10 -5 0 -10 5 -10
10 0 6 5 10 10 10 6 0 10 -4 10 -10z m-280 -25 c0 -8 -7 -15 -15 -15 -8 0 -15
7 -15 15 0 8 7 15 15 15 8 0 15 -7 15 -15z m326 -152 c-10 -10 -19 5 -10 18 6
11 8 11 12 0 2 -7 1 -15 -2 -18z m-116 -8 c0 -8 -7 -15 -15 -15 -8 0 -15 7
-15 15 0 8 7 15 15 15 8 0 15 -7 15 -15z"/>
<path d="M4623 7994 c9 -3 17 -12 17 -20 0 -16 -26 -19 -33 -4 -3 6 -4 5 -3
-2 2 -7 11 -13 22 -13 27 0 26 39 -1 42 -16 1 -16 1 -2 -3z"/>
<path d="M4940 6932 c0 -361 3 -471 13 -481 10 -11 10 -14 0 -18 -10 -4 -13
-73 -13 -299 l0 -294 130 0 130 0 0 750 0 750 -25 10 c-14 5 -32 7 -40 4 -10
-4 -13 -2 -10 7 4 11 -7 13 -50 11 -39 -3 -63 1 -80 12 -58 38 -55 58 -55
-452z m45 399 c7 -12 -12 -24 -25 -16 -11 7 -4 25 10 25 5 0 11 -4 15 -9z
m145 -680 c0 -5 -7 -11 -15 -15 -9 -3 -15 0 -15 9 0 8 7 15 15 15 8 0 15 -4
15 -9z m-80 -517 c0 -8 -4 -12 -10 -9 -5 3 -10 10 -10 16 0 5 5 9 10 9 6 0 10
-7 10 -16z m55 -184 c3 -5 1 -10 -4 -10 -6 0 -11 5 -11 10 0 6 2 10 4 10 3 0
8 -4 11 -10z"/>
<path d="M6300 7886 c0 -98 3 -136 13 -140 9 -5 9 -7 0 -12 -10 -4 -13 -166
-13 -727 0 -397 -3 -822 -7 -944 l-6 -223 135 0 135 0 -3 1003 c-2 551 -4
1041 -4 1090 l0 87 -125 0 -125 0 0 -134z m40 -216 c0 -5 -2 -10 -4 -10 -3 0
-8 5 -11 10 -3 6 -1 10 4 10 6 0 11 -4 11 -10z m190 -205 c0 -8 -7 -15 -15
-15 -16 0 -20 12 -8 23 11 12 23 8 23 -8z m-30 -65 c0 -5 -7 -10 -16 -10 -8 0
-12 5 -9 10 3 6 10 10 16 10 5 0 9 -4 9 -10z m35 -320 c3 -5 -1 -10 -9 -10 -9
0 -16 5 -16 10 0 6 4 10 9 10 6 0 13 -4 16 -10z m-115 -235 c0 -8 -7 -15 -15
-15 -16 0 -20 12 -8 23 11 12 23 8 23 -8z m38 -27 c-6 -18 -28 -21 -28 -4 0 9
7 16 16 16 9 0 14 -5 12 -12z m50 -50 c-6 -18 -28 -21 -28 -4 0 9 7 16 16 16
9 0 14 -5 12 -12z m-168 -108 c0 -5 -4 -10 -10 -10 -5 0 -10 5 -10 10 0 6 5
10 10 10 6 0 10 -4 10 -10z m184 -19 c3 -4 -1 -17 -9 -27 -14 -18 -14 -18 -15
9 0 26 13 36 24 18z m-184 -171 c0 -5 -2 -10 -4 -10 -3 0 -8 5 -11 10 -3 6 -1
10 4 10 6 0 11 -4 11 -10z m30 -100 c0 -5 -4 -10 -10 -10 -5 0 -10 5 -10 10 0
6 5 10 10 10 6 0 10 -4 10 -10z m140 -300 c0 -5 -2 -10 -4 -10 -3 0 -8 5 -11
10 -3 6 -1 10 4 10 6 0 11 -4 11 -10z m-110 -169 c0 -6 -4 -13 -10 -16 -5 -3
-10 1 -10 9 0 9 5 16 10 16 6 0 10 -4 10 -9z"/>
<path d="M7090 7471 c0 -430 3 -551 13 -555 9 -5 9 -7 -1 -12 -9 -4 -12 -119
-12 -535 l1 -529 129 0 130 0 0 1090 0 1090 -130 0 -130 0 0 -549z m180 279
c0 -5 -4 -10 -9 -10 -6 0 -13 5 -16 10 -3 6 1 10 9 10 9 0 16 -4 16 -10z m70
-430 c0 -5 -8 -10 -17 -10 -15 0 -16 2 -3 10 19 12 20 12 20 0z m-104 -555
c17 -16 14 -18 -10 -9 -9 3 -16 10 -16 15 0 13 9 11 26 -6z m74 -419 c0 -11
-19 -15 -25 -6 -3 5 1 10 9 10 9 0 16 -2 16 -4z m10 -116 c0 -5 -2 -10 -4 -10
-3 0 -8 5 -11 10 -3 6 -1 10 4 10 6 0 11 -4 11 -10z m-50 -190 c0 -5 -7 -10
-16 -10 -8 0 -12 5 -9 10 3 6 10 10 16 10 5 0 9 -4 9 -10z m35 -130 c3 -5 -1
-10 -10 -10 -9 0 -13 5 -10 10 3 6 8 10 10 10 2 0 7 -4 10 -10z"/>
<path d="M1822 7838 c0 -107 5 -188 10 -195 7 -9 7 -13 0 -13 -8 0 -11 -167
-12 -567 -1 -313 -3 -619 -5 -680 -3 -72 -1 -113 6 -113 6 0 6 -6 0 -19 -6
-10 -10 -102 -10 -215 l0 -196 136 0 135 0 -5 733 c-3 402 -6 797 -7 877 0 80
2 189 6 244 5 78 4 100 -7 107 -11 6 -11 11 -1 21 16 16 16 70 0 87 -10 11
-10 14 0 18 7 3 12 23 12 49 l0 44 -129 0 -129 0 0 -182z m103 -38 c3 -6 -1
-13 -10 -16 -19 -8 -30 0 -20 15 8 14 22 14 30 1z m-40 -200 c3 -5 1 -10 -4
-10 -6 0 -11 5 -11 10 0 6 2 10 4 10 3 0 8 -4 11 -10z m165 -55 c0 -8 -4 -15
-9 -15 -5 0 -14 7 -21 15 -10 13 -9 15 9 15 12 0 21 -6 21 -15z m-192 -143 c2
-7 -3 -12 -12 -12 -9 0 -16 7 -16 16 0 17 22 14 28 -4z m162 -53 c0 -5 -7 -9
-15 -9 -15 0 -20 12 -9 23 8 8 24 -1 24 -14z m-126 -28 c3 -5 -1 -11 -9 -15
-9 -3 -15 0 -15 9 0 16 16 20 24 6z m146 -6 c0 -8 -7 -15 -15 -15 -16 0 -20
12 -8 23 11 12 23 8 23 -8z m-50 -56 c0 -10 5 -19 10 -19 6 0 10 -7 10 -15 0
-8 -7 -15 -15 -15 -9 0 -18 7 -21 15 -4 8 -12 15 -19 15 -23 0 -29 22 -11 36
23 16 46 7 46 -17z m0 -109 c0 -12 -28 -25 -36 -17 -9 9 6 27 22 27 8 0 14 -5
14 -10z m-40 -65 c0 -8 -7 -15 -15 -15 -16 0 -20 12 -8 23 11 12 23 8 23 -8z
m105 -55 c3 -5 -1 -10 -10 -10 -9 0 -13 5 -10 10 3 6 8 10 10 10 2 0 7 -4 10
-10z m-185 -255 c0 -8 -7 -15 -15 -15 -16 0 -20 12 -8 23 11 12 23 8 23 -8z
m20 -29 c0 -3 -4 -8 -10 -11 -5 -3 -10 -1 -10 4 0 6 5 11 10 11 6 0 10 -2 10
-4z m-40 -176 c0 -5 -4 -10 -10 -10 -5 0 -10 5 -10 10 0 6 5 10 10 10 6 0 10
-4 10 -10z m140 -370 c0 -5 -7 -10 -15 -10 -8 0 -15 5 -15 10 0 6 7 10 15 10
8 0 15 -4 15 -10z m-50 -200 c0 -5 -5 -10 -11 -10 -5 0 -7 5 -4 10 3 6 8 10
11 10 2 0 4 -4 4 -10z m-70 -64 c0 -11 -19 -15 -25 -6 -3 5 1 10 9 10 9 0 16
-2 16 -4z"/>
<path d="M7880 6930 l0 -1090 135 0 135 0 0 856 c0 680 3 855 13 852 10 -4
320 -446 1004 -1435 l188 -272 128 -1 127 0 0 788 c0 600 -3 791 -12 800 -9 9
-9 12 0 12 9 0 12 71 12 290 l0 290 -130 0 -130 0 0 -575 c0 -377 3 -575 10
-575 6 0 10 -7 10 -15 0 -8 -4 -15 -10 -15 -6 0 -10 -97 -10 -270 0 -148 -4
-270 -8 -270 -5 0 -105 138 -222 308 -118 169 -311 447 -430 617 -119 171
-292 419 -385 553 l-168 242 -128 0 -129 0 0 -1090z m1705 741 c7 -12 -12 -24
-25 -16 -11 7 -4 25 10 25 5 0 11 -4 15 -9z m-1308 -23 c-3 -8 -6 -5 -6 6 -1
11 2 17 5 13 3 -3 4 -12 1 -19z m-207 -168 c0 -5 -4 -10 -10 -10 -5 0 -10 5
-10 10 0 6 5 10 10 10 6 0 10 -4 10 -10z m-90 -610 c0 -5 -7 -10 -15 -10 -8 0
-15 5 -15 10 0 6 7 10 15 10 8 0 15 -4 15 -10z m-12 -91 c-2 -6 -8 -10 -13
-10 -5 0 -11 4 -13 10 -2 6 4 11 13 11 9 0 15 -5 13 -11z m1132 -380 c0 -5 -4
-9 -10 -9 -5 0 -10 7 -10 16 0 8 5 12 10 9 6 -3 10 -10 10 -16z m-1165 -359
c3 -5 -1 -10 -10 -10 -9 0 -13 5 -10 10 3 6 8 10 10 10 2 0 7 -4 10 -10z"/>
<path d="M1780 5802 c0 -26 30 -32 161 -32 145 0 169 4 169 26 0 11 -31 14
-165 14 -91 0 -165 -4 -165 -8z"/>
<path d="M2064 4900 c0 -52 1 -74 3 -47 2 26 2 68 0 95 -2 26 -3 4 -3 -48z"/>
<path d="M2064 4515 c0 -159 2 -223 3 -142 2 82 2 212 0 290 -1 78 -3 12 -3
-148z"/>
<path d="M3820 4539 l0 -261 178 5 c186 5 223 12 281 55 79 59 109 219 61 330
-47 109 -109 132 -352 132 l-168 0 0 -261z"/>
<path d="M8680 4763 c0 -29 3 -34 12 -25 9 9 99 12 343 12 336 0 355 2 355 37
0 10 -70 13 -355 13 l-355 0 0 -37z"/>
<path d="M9342 4275 c0 -16 2 -22 5 -12 2 9 2 23 0 30 -3 6 -5 -1 -5 -18z"/>
<path d="M9341 4224 c0 -11 3 -14 6 -6 3 7 2 16 -1 19 -3 4 -6 -2 -5 -13z"/>
<path d="M2062 4195 c0 -16 2 -22 5 -12 2 9 2 23 0 30 -3 6 -5 -1 -5 -18z"/>
<path d="M2063 4110 c0 -30 2 -43 4 -27 2 15 2 39 0 55 -2 15 -4 2 -4 -28z"/>
<path d="M8680 4108 c1 -41 1 -42 16 -23 14 19 27 20 325 20 264 0 311 2 319
15 5 8 10 18 10 23 0 4 -151 7 -335 7 l-335 0 0 -42z"/>
<path d="M2061 4000 c-3 -182 93 -364 246 -466 183 -122 472 -138 681 -38 178
86 314 291 311 469 -1 35 -2 32 -14 -25 -19 -93 -46 -159 -92 -222 -117 -158
-288 -237 -510 -238 -338 0 -576 195 -612 503 l-8 72 -2 -55z"/>
<path d="M3541 3774 c0 -11 3 -14 6 -6 3 7 2 16 -1 19 -3 4 -6 -2 -5 -13z"/>
<path d="M3542 3725 c0 -16 2 -22 5 -12 2 9 2 23 0 30 -3 6 -5 -1 -5 -18z"/>
<path d="M3542 3665 c0 -16 2 -22 5 -12 2 9 2 23 0 30 -3 6 -5 -1 -5 -18z"/>
<path d="M3543 3585 c0 -27 2 -38 4 -22 2 15 2 37 0 50 -2 12 -4 0 -4 -28z"/>
<path d="M7890 3486 c0 -25 22 -30 125 -32 107 -2 145 6 145 31 0 13 -21 15
-135 15 -111 0 -135 -3 -135 -14z"/>
<path d="M8410 3486 c0 -8 6 -18 13 -23 17 -11 938 -13 960 -2 9 6 17 16 17
24 0 13 -67 15 -495 15 -424 0 -495 -2 -495 -14z"/>
</g>
</svg>
